<svg height="22pt" viewBox="-52 0 512 512.001" width="22pt" xmlns="http://www.w3.org/2000/svg"><path d="m331.695312 504.492188h-254.996093c-2.878907 0-5.210938-2.332032-5.210938-5.210938v-23.410156c0-15.960938 12.9375-28.898438 28.898438-28.898438h207.617187c15.960938 0 28.902344 12.9375 28.902344 28.898438v23.410156c0 2.878906-2.332031 5.210938-5.210938 5.210938zm0 0" fill="#de815a"/><path d="m336.902344 475.875v23.410156c0 2.875-2.328125 5.210938-5.203125 5.210938h-29.226563c2.878906 0 5.203125-2.335938 5.203125-5.210938v-23.410156c0-15.960938-12.929687-28.902344-28.890625-28.902344h29.222656c15.960938 0 28.894532 12.941406 28.894532 28.902344zm0 0" fill="#d86b3e"/><path d="m158.109375 354.800781h92.171875v92.171875h-92.171875zm0 0" fill="#e49776"/><path d="m225.691406 354.800781h24.589844v92.171875h-24.589844zm0 0" fill="#de815a"/><path d="m400.886719 204.195312c0 108.628907-88.0625 196.691407-196.691407 196.691407-108.628906 0-196.6875-88.0625-196.6875-196.691407 0-108.628906 88.058594-196.6875 196.6875-196.6875 108.628907 0 196.691407 88.058594 196.691407 196.6875zm0 0" fill="#2dcfea"/><path d="m400.882812 204.195312c0 108.632813-88.054687 196.6875-196.6875 196.6875-38.351562 0-74.140624-10.980468-104.398437-29.964843 27.066406 14.03125 57.800781 21.957031 90.386719 21.957031 108.632812 0 196.6875-88.0625 196.6875-196.695312 0-70.277344-36.863282-131.949219-92.308594-166.71875 63.164062 32.714843 106.320312 98.679687 106.320312 174.734374zm0 0" fill="#14b6ef"/><path d="m366.417969 204.195312c0 89.59375-72.628907 162.222657-162.222657 162.222657s-162.222656-72.628907-162.222656-162.222657 72.628906-162.222656 162.222656-162.222656 162.222657 72.628906 162.222657 162.222656zm0 0" fill="#ea552d"/><g fill="#ffdb45"><path d="m344.707031 123.066406-140.511719 81.128906 81.128907-140.511718c24.617187 14.242187 45.140625 34.765625 59.382812 59.382812zm0 0"/><path d="m63.683594 285.324219 140.511718-81.128907-81.125 140.511719c-24.617187-14.242187-45.144531-34.765625-59.386718-59.382812zm0 0"/><path d="m63.683594 123.066406 140.511718 81.128906h-162.226562c0-29.550781 7.90625-57.265624 21.714844-81.128906zm0 0"/><path d="m204.195312 41.96875v162.226562l-81.125-140.511718c23.859376-13.808594 51.5625-21.714844 81.125-21.714844zm0 0"/><path d="m204.195312 366.421875v-162.226563l81.128907 140.511719c-23.863281 13.808594-51.566407 21.714844-81.128907 21.714844zm0 0"/><path d="m344.707031 285.324219-140.511719-81.128907h162.226563c0 29.550782-7.90625 57.265626-21.714844 81.128907zm0 0"/></g><path d="m242.554688 204.195312c0 21.1875-17.175782 38.359376-38.359376 38.359376-21.1875 0-38.363281-17.171876-38.363281-38.359376 0-21.183593 17.175781-38.359374 38.363281-38.359374 21.183594 0 38.359376 17.175781 38.359376 38.359374zm0 0" fill="#f4e0e6"/><path d="m242.558594 204.199219c0 21.179687-17.1875 38.347656-38.363282 38.347656-10.5 0-19.976562-4.210937-26.90625-11.023437.957032.085937 1.917969.121093 2.890626.121093 21.195312 0 38.363281-17.167969 38.363281-38.363281 0-10.691406-4.371094-20.355469-11.441407-27.320312 19.820313 1.476562 35.457032 18.019531 35.457032 38.238281zm0 0" fill="#d6bfd1"/><path d="m306.050781 267.660156 26.960938 45.261719c2.25 3.773437 7.898437 4.894531 9.75 1.933594l12.765625-20.425781 12.769531-20.425782c1.851563-2.960937-1.632813-7.546875-6.011719-7.914062l-52.496094-4.410156c-3.742187-.316407-5.660156 2.753906-3.738281 5.980468zm0 0" fill="#9773bd"/><path d="m368.292969 274.007812-5.550781 8.878907c-.96875-1.035157-2.375-1.8125-3.910157-1.9375l-42.707031-3.585938c-1.636719-.136719-2.84375.523438-3.351562 1.578125l-6.722657-11.28125c-1.917969-3.226562 0-6.296875 3.742188-5.984375l52.496093 4.417969c4.375.367188 7.851563 4.949219 6.003907 7.914062zm0 0" fill="#5f55af"/><path d="m382.957031 293.824219c0 16.0625-13.019531 29.082031-29.082031 29.082031-16.058594 0-29.082031-13.019531-29.082031-29.082031s13.023437-29.082031 29.082031-29.082031c16.0625 0 29.082031 13.019531 29.082031 29.082031zm0 0" fill="#51489a"/><path d="m382.964844 293.828125c0 16.054687-13.03125 29.070313-29.085938 29.070313-7.960937 0-15.144531-3.195313-20.398437-8.355469.726562.066406 1.453125.09375 2.191406.09375 16.066406 0 29.085937-13.019531 29.085937-29.085938 0-8.105469-3.3125-15.433593-8.675781-20.714843 15.027344 1.121093 26.882813 13.664062 26.882813 28.992187zm0 0" fill="#2b3894"/><path d="m408.390625 204.195312c0-75.710937-41.5625-144.84375-108.472656-180.414062-3.65625-1.945312-8.207031-.554688-10.152344 3.105469-1.945313 3.660156-.554687 8.207031 3.105469 10.152343 61.996094 32.957032 100.507812 97.007813 100.507812 167.15625 0 23.117188-4.195312 45.257813-11.824218 65.75-3.449219-3.992187-7.738282-7.234374-12.597657-9.441406-1.289062-.730468-2.683593-1.277344-4.132812-1.597656 2.199219-6.371094 4.03125-12.890625 5.4375-19.546875 2.445312-11.550781 3.664062-23.355469 3.664062-35.164063 0-93.589843-76.140625-169.726562-169.730469-169.726562-93.589843 0-169.730468 76.136719-169.730468 169.726562 0 93.589844 76.140625 169.730469 169.730468 169.730469 16.234376 0 32.453126-2.316406 48.019532-6.917969 29.246094-8.644531 55.382812-25.300781 75.871094-47.261718 4.785156 4.765625 10.882812 8.207031 17.695312 9.75-34.683594 39.148437-85.292969 63.882812-141.585938 63.882812-104.3125 0-189.179687-84.867187-189.179687-189.183594 0-104.316406 84.867187-189.179687 189.179687-189.179687 19.699219 0 39.109376 3.011719 57.6875 8.953125 3.949219 1.261719 8.175782-.914062 9.4375-4.863281 1.261719-3.949219-.914062-8.175781-4.863281-9.4375-20.058593-6.414063-41.007812-9.667969-62.261719-9.667969-112.59375 0-204.195312 91.601562-204.195312 204.195312 0 94.054688 63.925781 173.445313 150.601562 197.046876v38.222656h-13.132812c-4.144531 0-7.507812 3.359375-7.507812 7.507812 0 4.144532 3.363281 7.507813 7.507812 7.507813h170.535156c11.796875 0 21.394532 9.59375 21.394532 21.390625v21.117187h-250.402344v-21.117187c0-11.796875 9.59375-21.390625 21.390625-21.390625h2.050781c4.144531 0 7.507812-3.363281 7.507812-7.507813 0-4.148437-3.363281-7.507812-7.507812-7.507812h-2.050781c-20.074219 0-36.40625 16.332031-36.40625 36.40625v23.414062c0 7.011719 5.707031 12.714844 12.71875 12.714844h254.996093c7.011719 0 12.714844-5.703125 12.714844-12.714844v-23.414062c0-20.074219-16.332031-36.40625-36.40625-36.40625h-50.214844v-38.210938c43.703126-11.90625 81.613282-38 108.472657-73.003906 14.097656-5.085938 24.203125-18.597656 24.203125-34.425781 0-1.777344-.132813-3.523438-.378906-5.234375 11.738281-25.738282 18.304687-54.308594 18.304687-84.394532zm-242.773437 200.523438c12.5 2.402344 25.390624 3.671875 38.578124 3.671875 13.191407 0 26.082032-1.277344 38.582032-3.675781v34.75h-77.160156zm193.109374-208.03125h-109.292968c-.492188-2.976562-1.269532-5.855469-2.304688-8.613281l94.628906-54.636719c9.875 19.125 15.878907 40.554688 16.96875 63.25zm-24.496093-76.238281-94.621094 54.632812c-1.894531-2.296875-4.003906-4.40625-6.300781-6.296875l54.632812-94.625c18.515625 11.96875 34.324219 27.777344 46.289063 46.289063zm-122.527344-70.785157c22.699219 1.089844 44.128906 7.09375 63.25 16.96875l-54.636719 94.628907c-2.753906-1.035157-5.636718-1.808594-8.613281-2.300781zm-15.011719 0v109.292969c-2.976562.496094-5.859375 1.265625-8.617187 2.304688l-54.632813-94.628907c19.121094-9.875 40.550782-15.878906 63.25-16.96875zm-76.242187 24.496094 54.632812 94.621094c-2.296875 1.890625-4.410156 4-6.300781 6.296875l-94.617188-54.628906c11.964844-18.511719 27.773438-34.320313 46.285157-46.289063zm-53.816407 59.277344 94.625 54.636719c-1.039062 2.753906-1.8125 5.636719-2.308593 8.613281h-109.285157c1.089844-22.695312 7.09375-44.125 16.96875-63.25zm-16.96875 78.265625h109.289063c.492187 2.976563 1.269531 5.859375 2.304687 8.613281l-94.625 54.636719c-9.875-19.121094-15.878906-40.550781-16.96875-63.25zm24.5 76.238281 94.617188-54.628906c1.890625 2.296875 4.003906 4.40625 6.300781 6.300781l-54.632812 94.617188c-18.515625-11.964844-34.320313-27.773438-46.285157-46.289063zm122.527344 70.785156c-22.699218-1.089843-44.132812-7.089843-63.25-16.96875l54.632813-94.625c2.757812 1.035157 5.640625 1.808594 8.617187 2.300782zm7.503906-123.679687c-17.015624 0-30.855468-13.839844-30.855468-30.851563 0-17.011718 13.839844-30.851562 30.855468-30.851562 17.011719 0 30.851563 13.839844 30.851563 30.851562 0 17.011719-13.839844 30.851563-30.851563 30.851563zm7.507813 123.679687v-109.292968c2.976563-.496094 5.859375-1.265625 8.613281-2.304688l54.636719 94.632813c-19.121094 9.871093-40.550781 15.875-63.25 16.964843zm76.238281-24.496093-54.632812-94.625c2.296875-1.890625 4.40625-4 6.300781-6.296875l58.324219 33.675781c.25 1.535156.800781 3.066406 1.667968 4.519531l18.933594 31.78125c.332032 1.242188.738282 2.453125 1.191406 3.636719-9.300781 10.46875-19.980468 19.679687-31.785156 27.308594zm32.976563-56.285157-4.890625-8.207031 9.640625.808594c-1.863281 2.257813-3.464844 4.738281-4.75 7.398437zm-10.496094-23.746093c-1.425781-.121094-2.789063.003906-4.074219.304687l-59.21875-34.191406c1.035156-2.753906 1.8125-5.632812 2.304688-8.609375h109.292968c-.769531 16.011719-3.988281 31.390625-9.285156 45.773437zm43.453125 61.199219c-11.894531 0-21.574219-9.679688-21.574219-21.574219 0-11.898438 9.679688-21.574219 21.574219-21.574219 11.898438 0 21.578125 9.675781 21.578125 21.574219 0 11.894531-9.679687 21.574219-21.578125 21.574219zm0 0"/></svg>