<svg id="Layer_35" enable-background="new 0 0 64 64" height="512" viewBox="0 0 64 64" width="512" xmlns="http://www.w3.org/2000/svg"><path d="m34.272 46.305c.319-.985.587-1.867.757-2.548.621-2.481.884-7.018-.933-9.344-.741-.951-1.754-1.413-3.096-1.413h-2v-2c0-.716-.112-7-4-7-2.537 0-4.377 2.879-6.327 5.928-.504.789-1.012 1.583-1.543 2.342 1.051-.841 2.023-1.757 2.879-2.566 1.723-1.628 2.861-2.704 3.991-2.704 1.991 0 3 1.346 3 4v.287l-.152.243c-2.385 3.816-6.513 7.397-10.154 10.557-3.44 2.984-6.711 5.824-7.507 7.986.967.117 1.908.386 2.615.85 3.103-2.107 6.545-4.937 10.515-8.653l1.367 1.46c-4.032 3.775-7.544 6.661-10.726 8.825.025.142.042.289.042.445 0 .795-.138 1.451-.319 1.99 4.139-.106 13.216-1.275 21.591-8.685zm-4.969-11.022 1.395 1.434c-.004.004-1.221 1.188-2.984 2.984l-1.427-1.401c1.784-1.819 3.016-3.017 3.016-3.017z"/><path d="m9 52.076v1.924c.035.231.43.672 1.564.883.2-.371.436-.992.436-1.883 0-.447-.997-.781-2-.924z"/><path d="m16.988 28.851c2.154-3.369 4.38-6.851 8.012-6.851 2.077 0 3.526 1.066 4.479 2.628-.968-3.589-3.242-5.628-6.479-5.628-2.339 0-6.081 2.501-7.02 7.196-.63 3.15-2.356 5.204-3.616 6.704-.693.825-1.349 1.605-1.364 2.083 2.396-.512 4.222-3.368 5.988-6.132z"/><path d="m45.808 30.805c2.184-5.702 2.192-9.166 2.192-12.805 0-8.271-3.914-15-8.724-15-.452 0-.791.133-1.067.419-1.307 1.352-1.163 5.675-1.046 9.15.084 2.519.164 4.898-.182 6.627-.636 3.179-2.232 5.795-3.509 7.479 1.041-.394 2.232-.675 3.528-.675 2.476 0 6.378 1.167 8.808 4.805z"/><path d="m31.538 30.017c-.219.165-.413.318-.547.433.006.184.009.368.009.55 1.943 0 3.559.755 4.674 2.183 2.433 3.117 1.912 8.597 1.296 11.06-.439 1.758-1.443 4.643-2.414 7.433-.838 2.408-1.824 5.246-2.288 6.968 2.374-4.001 7.732-13.687 7.732-19.644 0-5.871-2.776-8.808-8.462-8.983z"/><path d="m54.502 49.729c.245-1.739.498-3.537.498-5.729 0-3.511-1.037-9.256-7.668-9.932.421 1.41.668 3.041.668 4.932 0 .129-.007.261-.009.391 2.294 1.256 5.009 3.532 5.009 8.609 0 .671-.027 1.343-.055 2.023-.113 2.739-.221 5.559 1.578 9.171-.805-3.892-.423-6.611-.021-9.465z"/><path d="m50.946 49.941c.027-.653.054-1.297.054-1.941 0-3.462-1.456-5.24-3.171-6.376-.087.706-.205 1.419-.355 2.135 1.61 1.443 1.799 4.198 1.991 7.093.24 3.613.489 7.322 3.237 9.172-1.996-4.038-1.873-7.221-1.756-10.083z"/><path d="m37 28c-.853 0-1.65.165-2.381.401 4.79 1.162 7.381 4.824 7.381 10.599 0 7.328-7.013 19.091-8.771 21.924 5.409-1.372 12.771-12.582 12.771-21.924 0-8.701-5.887-11-9-11z"/></svg>