<?xml version="1.0" encoding="iso-8859-1"?>
<!-- Generator: Adobe Illustrator 19.0.0, SVG Export Plug-In . SVG Version: 6.00 Build 0)  -->
<svg version="1.1" id="Layer_1" xmlns="http://www.w3.org/2000/svg" xmlns:xlink="http://www.w3.org/1999/xlink" x="0px" y="0px"
	 viewBox="0 0 511.985 511.985" style="enable-background:new 0 0 511.985 511.985;" xml:space="preserve">
<g>
	<polygon style="fill:#F5F7FA;" points="350.739,9.494 306.739,52.493 454.235,206.989 498.983,160.99 	"/>
	<polygon style="fill:#F5F7FA;" points="83.395,277.72 39.396,320.72 186.891,475.215 231.64,429.216 	"/>
</g>
<polygon style="fill:#48CFAD;" points="452.641,24.666 403.253,32.666 339.333,62.665 273.335,114.007 214.656,170.661 
	138.658,252.003 94.668,322.657 39.333,409.998 11.334,473.324 43.333,504.651 108.659,467.324 187.993,421.325 277.335,356.968 
	377.987,272.003 422.751,208.004 468.641,138.912 480.639,89.226 480.639,32.666 "/>
<path d="M508.858,153.99l-22.625-22.624c-1.203-1.188-2.656-2.062-4.234-2.594c7.047-18.625,10.609-33.796,12.391-44.842
	c4.328-26.984,1.281-48.733-8.156-58.17c-8.359-8.359-23.873-10.109-35.404-10.109c-14.031,0-36.748,2.594-67.623,14.312
	c-0.516-1.531-1.375-2.984-2.594-4.203L357.988,3.12c-4.156-4.156-10.92-4.156-15.092,0l-45.25,45.28
	c-4.172,4.156-4.172,10.906,0,15.078l7.844,7.859c-12.594,8.562-25.264,18.062-37.943,28.437
	c-43.226,35.405-86.068,80.841-127.34,135.089c-12.093,15.875-24.077,32.562-35.937,50.03l-14.015-14.03
	c-2-2-4.718-3.125-7.546-3.125s-5.539,1.125-7.547,3.125l-45.256,45.264c-2,2-3.125,4.719-3.125,7.547s1.125,5.531,3.125,7.531
	l22.632,22.639c1.711,1.719,3.867,2.703,6.093,3.016c-19.07,32.156-37.725,66.279-55.865,102.248
	c-8.547,16.937,4.789,30.623,11.96,37.967c0.062,0.062,0.125,0.125,0.188,0.188c7.633,7.438,15.992,14.719,26.804,14.719l0,0
	c3.781,0,7.539-0.938,11.164-2.75c36.1-18.219,70.193-36.843,102.254-55.842c0.305,2.219,1.305,4.359,3.008,6.062l22.624,22.623
	c2.086,2.094,4.82,3.125,7.547,3.125c2.734,0,5.461-1.031,7.546-3.125l45.257-45.248c2-2,3.125-4.719,3.125-7.547
	s-1.125-5.547-3.125-7.547l-13.977-13.968c67.068-45.593,122.912-93.122,166.91-142.151c18.766-20.922,34.092-40.718,46.592-59.124
	l7.875,7.843c2.078,2.094,4.812,3.125,7.531,3.125c2.734,0,5.469-1.031,7.547-3.125l45.264-45.249c2-2,3.125-4.719,3.125-7.546
	C511.983,158.709,510.858,155.99,508.858,153.99z M90.254,301.048l-15.085,15.078c1.93-1.922,3.117-4.594,3.117-7.547
	c0-2.938-1.188-5.609-3.125-7.531l7.547-7.562L90.254,301.048z M60.075,316.126c1.93,1.922,4.602,3.125,7.547,3.125
	s5.609-1.203,7.539-3.125l-15.085,15.078l-7.539-7.531L60.075,316.126z M188.313,459.45l-7.547-7.531l15.093-15.094
	c-1.929,1.938-3.125,4.594-3.125,7.531c0,2.953,1.195,5.625,3.125,7.562L188.313,459.45z M210.946,436.825
	c-1.93-1.938-4.602-3.125-7.547-3.125s-5.609,1.188-7.539,3.125l15.086-15.094l7.539,7.547L210.946,436.825z M350.458,25.76
	l7.529,7.547L342.645,48.65c-0.031,0.016-0.062,0.031-0.062,0.031c2.109-1.938,3.438-4.719,3.438-7.844
	c0-2.937-1.188-5.609-3.125-7.531L350.458,25.76z M320.27,55.93l7.547-7.546c1.922,1.938,4.609,3.125,7.547,3.125
	c0.938,0,1.859-0.141,2.719-0.359c-4.719,2.641-9.484,5.421-14.25,8.343L320.27,55.93z M377.456,252.159
	c-75.998,84.419-188.439,164.51-334.185,238.008c-0.93,0.469-1.398,0.469-1.555,0.469l0,0c-2.992,0-9.515-6.312-11.804-8.562
	c-9.781-10.03-8.851-11.874-8.101-13.358c42.725-84.7,88.271-159.042,135.378-220.946c40.256-52.904,81.935-97.153,123.864-131.496
	c89.855-73.561,152.666-79.279,169.775-79.279c13.359,0,19.281,2.843,20.312,3.843c1.484,1.531,6.529,13.531,2.031,40.562
	C468.282,110.898,449.329,172.318,377.456,252.159z M456.048,191.708l-3.562-3.562c3-4.906,5.781-9.687,8.375-14.343
	c-0.25,0.906-0.391,1.844-0.391,2.812c0,2.953,1.203,5.625,3.125,7.562L456.048,191.708z M478.686,169.083
	c-1.936-1.938-4.607-3.125-7.545-3.125c-3.141,0-5.953,1.359-7.906,3.516c0.016-0.016,0.031-0.047,0.047-0.078l15.404-15.406
	l7.547,7.547L478.686,169.083z"/>
<path d="M403.253,67.899c-5.891,0-10.672,4.781-10.672,10.656c0,5.906,4.781,10.671,10.672,10.671s10.672-4.765,10.672-10.671
	C413.925,72.68,409.143,67.899,403.253,67.899z"/>
<path d="M433.423,98.07c-5.891,0-10.672,4.765-10.672,10.671c0,5.875,4.781,10.656,10.672,10.656s10.656-4.781,10.656-10.656
	C444.079,102.835,439.313,98.07,433.423,98.07z"/>
<path d="M373.081,98.07c-5.906,0-10.672,4.765-10.672,10.671c0,5.875,4.766,10.656,10.672,10.656
	c5.891,0,10.656-4.781,10.656-10.656C383.737,102.835,378.971,98.07,373.081,98.07z"/>
<path d="M403.253,128.241c-5.891,0-10.672,4.781-10.672,10.656c0,5.906,4.781,10.687,10.672,10.687s10.672-4.781,10.672-10.687
	C413.925,133.022,409.143,128.241,403.253,128.241z"/>
<path d="M135.51,335.641c-5.89,0-10.664,4.765-10.671,10.655c0,5.905,4.781,10.671,10.671,10.671
	c5.891,0,10.672-4.766,10.672-10.671C146.182,340.406,141.401,335.641,135.51,335.641z"/>
<path d="M165.681,365.796c-5.89,0-10.664,4.781-10.664,10.688c0,5.875,4.773,10.656,10.664,10.656s10.672-4.781,10.672-10.656
	C176.353,370.577,171.572,365.796,165.681,365.796z"/>
<path d="M105.339,365.796c-5.89,0-10.671,4.781-10.671,10.688c0,5.875,4.781,10.656,10.671,10.656
	c5.891,0,10.664-4.781,10.664-10.656C116.003,370.577,111.23,365.796,105.339,365.796z"/>
<path d="M135.51,395.983c-5.89,0-10.671,4.78-10.664,10.655c-0.008,5.906,4.773,10.687,10.664,10.687s10.664-4.78,10.672-10.687
	C146.182,400.763,141.401,395.983,135.51,395.983z"/>
<g>
</g>
<g>
</g>
<g>
</g>
<g>
</g>
<g>
</g>
<g>
</g>
<g>
</g>
<g>
</g>
<g>
</g>
<g>
</g>
<g>
</g>
<g>
</g>
<g>
</g>
<g>
</g>
<g>
</g>
</svg>
