<svg id="Capa_1" enable-background="new 0 0 512 512" height="512" viewBox="0 0 512 512" width="512" xmlns="http://www.w3.org/2000/svg"><g><path d="m31.82 395.327c-23.399 23.399-23.399 61.454 0 84.853s61.454 23.399 84.853 0l45.088-45.088c25.3-25.3 55.01-49.861 89.846-74.537l-100.162-100.162c-24.675 34.836-49.237 64.547-74.537 89.846zm106.066-42.426 21.213 21.213-21.213 21.213-21.213-21.213z"/><path d="m281.799 339.892c6.597-4.319 13.304-9.13 20.01-13.987l-115.713-115.714c-4.858 6.705-9.668 13.412-13.987 20.01-1.146 1.749-2.281 3.279-3.426 5.004l108.113 108.113c1.724-1.145 3.255-2.28 5.003-3.426z"/><path d="m204.49 186.16 121.35 121.349c19.235-15.46 40.39-34.459 58.572-52.643 99.426-99.426 151.765-208.857 116.673-243.951-35.094-35.092-144.525 17.246-243.951 116.673-18.185 18.182-37.184 39.337-52.644 58.572zm190.529-5.539-21.215 21.213-21.213-21.213 21.213-21.213zm-63.64-63.641 21.213 21.215-21.213 21.213-21.213-21.213z"/><path d="m248.646 400.022c-24.694 18.647-46.668 37.28-65.673 56.285l-23.873 23.873 31.819 31.82 84.853-84.853z"/><path d="m394.769 286.435 32.071 32.071 84.851-84.853-37.271-37.273c-19.742 26.816-42.925 53.828-68.796 79.698-3.562 3.562-7.245 6.886-10.855 10.357z"/><path d="m235.921 106.377c26.195-26.195 53.232-49.028 79.9-68.595l-37.475-37.473-84.852 84.851 32.071 32.071c3.471-3.611 6.794-7.293 10.356-10.854z"/><path d="m55.693 329.026c19.005-19.005 37.637-40.979 56.285-65.673l-27.125-27.125-84.853 84.853 31.815 31.815z"/></g></svg>