<svg id="Capa_1" enable-background="new 0 0 512 512" height="512" viewBox="0 0 512 512" width="512" xmlns="http://www.w3.org/2000/svg"><g><g><g clip-rule="evenodd" fill-rule="evenodd"><path d="m74.509 111.913 151.628-10.658 139.296 10.658-31.833 345.236h-227.257z" fill="#b3e59f"/><path d="m338.929 111.913h26.504l-31.833 345.265h-227.257l-2.239-24.294h205.231z" fill="#95d6a4"/><path d="m119.07 7.512h201.801c7.002 0 12.728 5.726 12.728 12.728v37.956h-227.256v-37.956c0-7.003 5.726-12.728 12.727-12.728z" fill="#b3e59f"/><path d="m74.509 53.348h290.924c7.001 0 12.727 5.727 12.727 12.728v33.109c0 7.001-5.726 12.728-12.727 12.728h-290.924c-7.002 0-12.728-5.726-12.728-12.728v-33.109c.001-7.001 5.727-12.728 12.728-12.728z" fill="#78c2a4"/><path d="m353.896 53.348h11.537c7.001 0 12.727 5.727 12.727 12.728v33.109c0 7.001-5.726 12.728-12.727 12.728h-290.924c-7.002 0-12.728-5.726-12.728-12.728v-11.537h272.696c10.687 0 19.418-8.731 19.418-19.417v-14.883z" fill="#66b394"/><path d="m106.343 504.517c26.08 0 47.339-21.289 47.339-47.367 0-26.051-21.26-47.339-47.339-47.339s-47.339 21.289-47.339 47.339c0 26.078 21.26 47.367 47.339 47.367z" fill="#efa473"/><path d="m106.343 475.943c10.347 0 18.794-8.447 18.794-18.793 0-10.318-8.447-18.766-18.794-18.766-10.346 0-18.794 8.447-18.794 18.766 0 10.346 8.448 18.793 18.794 18.793z" fill="#ce835d"/></g><path d="m370.564 304.7 23.982-41.557c5.527-9.581-1.446-21.77-12.53-21.77h-55.021c-11.735 0-18.426 13.152-12.019 22.648l23.471 40.678h32.117z" fill="#174b67"/><path clip-rule="evenodd" d="m354.491 303.396c54.17 0 98.505 44.335 98.505 98.505v88.045c0 8.023-6.548 14.57-14.542 14.57h-167.927c-8.022 0-14.57-6.548-14.57-14.57v-88.045c.001-54.171 44.335-98.505 98.534-98.505z" fill="#0c5e7f" fill-rule="evenodd"/><path clip-rule="evenodd" d="m410.873 321.254c25.427 17.858 42.124 47.396 42.124 80.647v88.045c0 8.023-6.548 14.57-14.542 14.57h-167.928c-8.022 0-14.57-6.548-14.57-14.57v-9.695h158.232c7.994 0 14.542-6.576 14.542-14.57v-88.045c0-20.92-6.604-40.394-17.858-56.382z" fill="#174b67" fill-rule="evenodd"/></g><path d="m248.446 465.001h-87.819c-1.729 12.018-7.313 22.762-15.505 30.955-9.922 9.921-23.642 16.044-38.779 16.044s-28.857-6.123-38.778-16.044c-9.921-9.95-16.073-23.641-16.073-38.807 0-15.138 6.151-28.829 16.073-38.779 7.115-7.115 16.186-12.274 26.334-14.627l-19.361-209.992c-.368-4.11 2.664-7.739 6.775-8.136 4.11-.369 7.739 2.665 8.107 6.775l19.333 209.994c14.202.595 26.986 6.604 36.369 15.987 8.334 8.335 14.003 19.361 15.59 31.635h87.734v-48.105c0-29.14 11.934-55.673 31.153-74.864 12.926-12.926 29.14-22.564 47.254-27.497l-18.085-31.352c-2.608-3.827-3.77-8.05-3.77-12.217 0-3.628.907-7.171 2.579-10.346 1.673-3.204 4.111-5.982 7.144-8.023 3.43-2.324 7.625-3.742 12.274-3.742h19.672l10.574-114.436h-274.539l3.6 39.147c.368 4.11-2.665 7.739-6.775 8.107-4.11.369-7.739-2.665-8.108-6.775l-3.827-41.698c-2.806-1.021-5.329-2.665-7.37-4.734-3.685-3.657-5.953-8.703-5.953-14.287v-33.108c0-5.556 2.268-10.63 5.953-14.287 3.657-3.657 8.703-5.953 14.287-5.953h24.322v-25.596c0-5.585 2.296-10.63 5.953-14.288 3.656-3.684 8.731-5.952 14.286-5.952h201.801c5.556 0 10.63 2.268 14.287 5.952 3.656 3.657 5.924 8.703 5.924 14.288v25.597h24.35c5.556 0 10.63 2.296 14.287 5.953s5.953 8.731 5.953 14.287v33.109c0 5.584-2.296 10.63-5.953 14.287-2.069 2.069-4.564 3.713-7.37 4.734l-10.658 115.655h20.324c4.054 0 7.739 1.105 10.886 2.948 3.401 1.956 6.151 4.791 8.079 8.136 1.899 3.288 2.976 7.115 2.976 11.027 0 3.855-1.02 7.597-2.948 10.914l-18.879 32.683c.425.114.851.227 1.276.369 9.524 2.721 18.51 6.747 26.759 11.877 3.515 2.183 4.592 6.804 2.41 10.29-2.183 3.515-6.803 4.592-10.318 2.409-7.058-4.394-14.769-7.823-22.933-10.176-7.71-2.183-15.874-3.203-24.095-3.09-23.925.283-48.558 9.893-65.027 26.391-16.499 16.498-26.76 39.26-26.76 64.262v88.045c0 1.927.822 3.714 2.098 4.989 1.275 1.275 3.033 2.069 4.989 2.069h167.927c1.927 0 3.685-.794 4.989-2.069 1.275-1.275 2.069-3.062 2.069-4.989v-88.045c0-10.516-1.786-20.58-5.074-29.934-3.401-9.694-8.447-18.708-14.797-26.646-2.579-3.231-2.04-7.937 1.219-10.517 3.231-2.58 7.937-2.041 10.517 1.19 7.341 9.213 13.21 19.701 17.178 31.068 3.855 10.97 5.953 22.706 5.953 34.838v88.045c0 6.066-2.466 11.594-6.463 15.591s-9.524 6.463-15.59 6.463h-167.929c-6.094 0-11.593-2.466-15.59-6.463s-6.491-9.524-6.491-15.591zm-108.767-323.465c-.255-4.11 2.863-7.682 6.974-7.965 4.138-.284 7.71 2.863 7.994 6.973l9.695 138.134c.283 4.139-2.835 7.71-6.974 7.965-4.11.284-7.682-2.835-7.965-6.973zm145.617-.992c.284-4.11 3.855-7.257 7.965-6.973 4.139.283 7.257 3.855 6.974 7.965l-9.695 138.134c-.283 4.139-3.855 7.257-7.965 6.973-4.139-.255-7.257-3.827-6.973-7.965zm-72.822.51c0-4.139 3.345-7.512 7.483-7.512 4.139 0 7.512 3.373 7.512 7.512v138.134c0 4.138-3.373 7.483-7.512 7.483s-7.483-3.345-7.483-7.483zm129.913 155.511c3.969-.454 8.023-.681 12.105-.681s8.135.227 12.132.709l21.43-37.163c1.304-2.211 1.248-4.848-.028-7.059-1.275-2.211-3.458-3.486-6.01-3.486h-55.021c-2.664 0-4.932 1.36-6.18 3.713-1.53 2.892-.878 5.046.624 7.682zm-236.044 134.307c7.257 0 13.833 2.948 18.595 7.71 4.734 4.762 7.683 11.31 7.683 18.567 0 7.285-2.948 13.833-7.683 18.595-4.762 4.762-11.338 7.71-18.595 7.71-7.256 0-13.833-2.948-18.596-7.71-4.734-4.762-7.682-11.339-7.682-18.595 0-7.257 2.948-13.805 7.682-18.567 4.763-4.762 11.339-7.71 18.596-7.71zm7.965 18.312c-2.041-2.041-4.847-3.316-7.965-3.316s-5.953 1.275-7.994 3.316-3.288 4.876-3.288 7.966c0 3.118 1.247 5.953 3.288 7.994s4.875 3.288 7.994 3.288c3.118 0 5.925-1.247 7.965-3.288 2.041-2.041 3.317-4.875 3.317-7.994 0-3.091-1.276-5.925-3.317-7.966zm20.212-20.183c-7.201-7.229-17.179-11.679-28.177-11.679s-20.977 4.451-28.177 11.679c-7.2 7.2-11.679 17.149-11.679 28.148 0 11.027 4.479 20.976 11.679 28.176 7.2 7.228 17.179 11.679 28.177 11.679s20.977-4.451 28.177-11.679c7.2-7.2 11.679-17.149 11.679-28.176 0-10.999-4.479-20.948-11.679-28.148zm-60.011-368.169c-1.446 0-2.75.596-3.685 1.559-.964.936-1.559 2.268-1.559 3.685v33.109c0 1.446.595 2.75 1.559 3.685.936.964 2.239 1.559 3.685 1.559h290.924c1.417 0 2.721-.595 3.685-1.559.964-.936 1.53-2.239 1.53-3.685v-33.109c0-1.417-.566-2.75-1.53-3.685-.964-.963-2.268-1.559-3.685-1.559-42.832 0-85.664 0-128.468 0-4.139 0-7.512-3.345-7.512-7.484s3.373-7.512 7.512-7.512h89.123v-25.596c0-1.446-.595-2.75-1.53-3.686-.964-.964-2.268-1.559-3.685-1.559h-201.803c-1.417 0-2.721.595-3.685 1.559-.963.935-1.53 2.24-1.53 3.686v25.597h89.122c4.139 0 7.512 3.373 7.512 7.512s-3.373 7.484-7.512 7.484c-42.832-.001-85.636-.001-128.468-.001z"/></g></svg>