<svg id="Layer_1" enable-background="new 0 0 510 510" height="512" viewBox="0 0 510 510" width="512" xmlns="http://www.w3.org/2000/svg"><g><path d="m86.392 230.282-10.76 249.718 29.684 10 29.684-10 10-109-10-161-26.5-8.5z" fill="#4d5e80"/><path d="m159.667 199-24.667 11v270l29.684 10 29.684-10-10.769-249.927z" fill="#3d4566"/><path d="m343.667 314.5-18.03 35.418-9.573 130.082 29.936 10 29-10 10-59.667-10-90.973z" fill="#4d5e80"/><path d="m375 329.36v150.64l29.469 10 29.468-10-9.587-130.297-23.85-30.953z" fill="#3d4566"/><g id="XMLID_422_"><g><path d="m270 90h-15c-24.813 0-45-20.187-45-45 0-24.812 20.187-45 45-45h120v30h-120c-8.271 0-15 6.729-15 15s6.729 15 15 15h15z" fill="#d7e9fc"/></g></g><g id="XMLID_420_"><g><path d="m465 105h-15c-24.814 0-45-20.187-45-45 0-24.812 20.186-45 45-45h60v30h-60c-8.272 0-15 6.729-15 15s6.728 15 15 15h15z" fill="#c0dbf2"/></g></g><path d="m78.706 129.23c-26.833 12.366-63.444 47.741-72.932 72.499-7.719 20.144 1.835 35.977 23.274 38.511 26.267 3.1 73.589-12.503 97.982-30.767l7.97-119.473v-89.997c-9.242-.056-16.908 5.403-22.628 12.758-16.368 21.044-27.605 70.7-24.322 99.92l-2.508 10.027z" fill="#ffe652"/><path d="m142.986 209.471c22.681 17.208 67.67 32.126 94.374 30.683 5.677-.307 11.425-1.427 16.477-4.082 11.397-5.989 16.648-18.561 10.338-34.838-5.21-13.439-18.578-30.155-34.072-44.551-12.619-11.724-26.649-21.908-38.831-27.528l-8.177-6.967-1.361-9.777c3.184-29.252-8.048-78.689-24.352-99.65-5.652-7.265-13.218-12.708-22.382-12.758v89.997z" fill="#ffbe40"/><path d="m75 150c0 33.083 26.915 60 60 60l10-60-10-60c-33.083 0-60 26.915-60 60z" fill="#ae8c72"/><path d="m135 90v120c33.083 0 60-26.915 60-60 0-16.542-6.729-31.542-17.594-42.406-10.864-10.865-25.864-17.594-42.406-17.594z" fill="#926a57"/><g><path d="m318.706 248.589c-26.833 12.367-63.444 47.741-72.932 72.499-6.258 16.332-.92 28.866 10.472 34.798 6.083 3.167 13.102 4.101 19.906 4.101 26.511 0 67.94-13.98 90.878-31.153l7.97-119.475v-89.996c-.02 0-.041-.001-.061-.002-.021-.001-.042-.001-.061-.001-3.447 0-7.911.798-12.705 3.72-3.189 1.943-6.523 4.827-9.8 9.04-16.368 21.044-27.604 70.7-24.322 99.921l-2.508 10.027z" fill="#ffbe40"/><path d="m382.986 328.83c23.439 17.783 71.707 33.581 98.063 30.363 9.198-1.122 17.779-4.859 22.503-12.746 4.724-7.885 3.973-17.213.623-25.853-9.616-24.807-46.243-59.779-72.903-72.08l-8.178-6.967-1.361-9.777c3.184-29.251-8.048-78.688-24.352-99.649-3.259-4.19-6.575-7.065-9.748-9.008-4.756-2.913-9.191-3.73-12.633-3.749v89.996z" fill="#ff9f40"/><path d="m315 269.359c0 33.084 26.915 60 60 60l10-60-10-59.999c-33.083 0-60 26.915-60 59.999z" fill="#926a57"/><path d="m375 209.36v119.999c33.083 0 60-26.915 60-60 0-33.083-26.915-59.999-60-59.999z" fill="#7c5546"/></g><g id="XMLID_74_"><g><path d="m255 510h-255v-30h255l10 15z" fill="#ace233"/></g></g><g id="XMLID_424_"><g><path d="m255 480h255v30h-255z" fill="#00cb75"/></g></g></g></svg>