<svg id="Layer_1" enable-background="new 0 0 512.003 512.003" height="512" viewBox="0 0 512.003 512.003" width="512" xmlns="http://www.w3.org/2000/svg"><g><circle cx="256.002" cy="208.003" r="40"/><path d="m221.243 164.119c17.906-14.217 42.58-16.033 62.26-4.885 2.01 1.139 4.499-.281 4.499-2.591v-148.64c0-5.227-4.92-9.02-9.94-7.76-22.53 5.63-39.56 24.07-43.37 46.979l-18.58 111.46c-.287 1.739-.021 3.103.503 4.347.763 1.816 3.086 2.314 4.628 1.09z"/><path d="m235.827 260.256c1.6.618 2.176 2.555 1.201 3.966-.848 1.228-1.947 2.296-3.787 2.981-32.19 12.06-74.54 27.93-105.82 39.65-22.2 8.29-46.53 2.31-62.38-14.07-3.61-3.74-2.75-9.89 1.75-12.49l129.288-74.64c1.758-1.015 3.924.273 3.922 2.303v.048c.001 23.817 14.868 44.157 35.826 52.252z"/><path d="m405.902 269.933-87.25-71.82c-1.336-1.107-2.666-1.56-3.995-1.731-1.952-.252-3.534 1.527-3.246 3.474 1.849 12.495-.549 25.943-7.81 37.627-.557.897-.618 2.006-.158 2.956 2.318 4.791 2.17 8.753 4.439 34.464l105.33 60.81c4.481 2.586 10.247.301 11.69-4.73 6.38-22.32-1.07-46.29-19-61.05z"/><path d="m351.727 496.003h-40.4c-2.207-25.011-17.71-200.687-21.033-238.293-.198-2.244-2.691-3.447-4.604-2.258-9.464 5.88-20.309 8.63-28.44 8.595-1.096-.005-2.106.592-2.638 1.551-8.568 15.429-8.057 13.783-33.948 23.411-1.086.404-1.847 1.397-1.949 2.551l-18.04 204.445h-40.4c-4.261 0-7.981 3.215-8.257 7.467-.302 4.659 3.388 8.533 7.983 8.533h192c4.595 0 8.285-3.874 7.983-8.533-.276-4.254-3.996-7.469-8.257-7.469z"/><path d="m136.002 60.003c0-15.439-12.561-28-28-28h-12c-4.418 0-8 3.582-8 8s3.582 8 8 8h12c6.617 0 12 5.383 12 12s-5.383 12-12 12h-76c-4.418 0-8 3.582-8 8s3.582 8 8 8h76c15.439 0 28-12.56 28-28z"/><path d="m64.002 112.003c0 4.418 3.582 8 8 8h76c6.617 0 12 5.383 12 12s-5.383 12-12 12h-12c-4.418 0-8 3.582-8 8s3.582 8 8 8h12c15.439 0 28-12.561 28-28s-12.561-28-28-28h-76c-4.419 0-8 3.582-8 8z"/><path d="m336.002 128.003h76c15.439 0 28-12.561 28-28s-12.561-28-28-28h-12c-4.418 0-8 3.582-8 8s3.582 8 8 8h12c6.617 0 12 5.383 12 12s-5.383 12-12 12h-76c-4.418 0-8 3.582-8 8s3.581 8 8 8z"/><path d="m460.002 144.003h-12c-4.418 0-8 3.582-8 8s3.582 8 8 8h12c6.617 0 12 5.383 12 12s-5.383 12-12 12h-76c-4.418 0-8 3.582-8 8s3.582 8 8 8h76c15.439 0 28-12.561 28-28s-12.561-28-28-28z"/></g></svg>