<svg height="512pt" viewBox="-16 0 512 512" width="512pt" xmlns="http://www.w3.org/2000/svg"><path d="m272.015625 503.484375-16-248c-.269531-4.207031-3.761719-7.484375-7.980469-7.484375h-16c-4.21875 0-7.714844 3.273438-7.984375 7.484375l-16 248c-.144531 2.207031.636719 4.375 2.148438 5.988281 1.511719 1.613282 3.625 2.527344 5.835937 2.527344h48c2.210938 0 4.324219-.914062 5.835938-2.527344 1.511718-1.613281 2.289062-3.78125 2.144531-5.988281zm0 0" fill="#e3dadd"/><path d="m266.015625 131.484375c-2.332031-36.167969-4.871094-65.019531-7.546875-85.757813-1.640625-12.71875-3.296875-22.226562-5.0625-29.070312-1.394531-5.40625-4.300781-16.65625-13.375-16.65625-9.070312 0-11.972656 11.25-13.371094 16.65625-1.765625 6.84375-3.421875 16.351562-5.0625 29.070312-2.675781 20.738282-5.214844 49.589844-7.546875 85.757813-3.960937 61.417969-5.992187 123.636719-6.015625 124.257813-.066406 2.164062.742188 4.265624 2.25 5.824218 1.507813 1.554688 3.582032 2.433594 5.746094 2.433594h48c2.167969 0 4.242188-.878906 5.75-2.433594 1.503906-1.558594 2.316406-3.660156 2.246094-5.824218-.019532-.621094-2.046875-62.839844-6.011719-124.257813zm0 0" fill="#b2df78"/><path d="m224.035156 255.742188c.023438-.621094 2.050782-62.839844 6.015625-124.257813 2.332031-36.167969 4.871094-65.019531 7.546875-85.757813 1.640625-12.71875 3.296875-22.226562 5.0625-29.070312.859375-3.324219 2.289063-8.855469 5.371094-12.625-1.929688-2.359375-4.503906-4.03125-8-4.03125-9.070312 0-11.972656 11.25-13.371094 16.65625-1.765625 6.84375-3.421875 16.351562-5.0625 29.070312-2.675781 20.738282-5.214844 49.589844-7.546875 85.757813-3.960937 61.417969-5.992187 123.636719-6.015625 124.257813-.066406 2.164062.742188 4.265624 2.25 5.824218 1.507813 1.554688 3.582032 2.433594 5.746094 2.433594h16c-2.164062 0-4.238281-.878906-5.746094-2.433594-1.507812-1.558594-2.316406-3.660156-2.25-5.824218zm0 0" fill="#7ec91e"/><path d="m258.960938 272.785156-24-41.570312c-1.082032-1.875-2.878907-3.230469-4.980469-3.757813-2.105469-.527343-4.328125-.179687-6.167969.964844-.527344.324219-53.394531 33.191406-104.605469 67.332031-30.152343 20.105469-53.871093 36.730469-70.492187 49.417969-10.195313 7.78125-17.601563 13.96875-22.644532 18.917969-3.984374 3.914062-12.273437 12.050781-7.738281 19.910156 4.296875 7.445312 14.382813 5.117188 21.109375 3.25 6.808594-1.894531 15.871094-5.210938 27.707032-10.148438 19.296874-8.054687 45.554687-20.28125 78.042968-36.34375 55.171875-27.277343 110.066406-56.628906 110.617188-56.921874 1.910156-1.019532 3.324218-2.773438 3.917968-4.859376.59375-2.082031.320313-4.316406-.765624-6.191406zm0 0" fill="#b2df78"/><path d="m258.960938 272.785156-3.523438-6.105468c-.703125 1.71875-1.980469 3.148437-3.628906 4.03125-.546875.292968-55.445313 29.644531-110.617188 56.921874-32.488281 16.0625-58.746094 28.289063-78.042968 36.339844-11.832032 4.9375-20.894532 8.257813-27.707032 10.152344-5.207031 1.445312-12.421875 3.164062-17.414062.410156-1.257813 3-1.546875 6.253906.304687 9.464844 4.300781 7.445312 14.382813 5.121094 21.109375 3.25 6.8125-1.890625 15.875-5.210938 27.707032-10.148438 19.296874-8.050781 45.554687-20.28125 78.042968-36.34375 55.171875-27.277343 110.070313-56.625 110.617188-56.917968 1.910156-1.023438 3.324218-2.777344 3.917968-4.859375.59375-2.085938.320313-4.320313-.765624-6.195313zm0 0" fill="#7ec91e"/><path d="m453.996094 364.09375c-5.042969-4.953125-12.449219-11.140625-22.644532-18.921875-16.621093-12.6875-40.339843-29.3125-70.492187-49.414063-51.210937-34.144531-104.078125-67.011718-104.605469-67.335937-1.839844-1.144531-4.0625-1.492187-6.167968-.964844-2.101563.527344-3.898438 1.882813-4.980469 3.761719l-24 41.566406c-1.082031 1.875-1.359375 4.113282-.765625 6.195313s2.007812 3.835937 3.917968 4.859375c.546876.292968 55.445313 29.644531 110.617188 56.921875 32.488281 16.0625 58.746094 28.289062 78.042969 36.339843 11.832031 4.9375 20.894531 8.257813 27.703125 10.152344 6.730468 1.867188 16.8125 4.195313 21.113281-3.25 4.539063-7.859375-3.753906-16-7.738281-19.910156zm0 0" fill="#b2df78"/><path d="m449.601562 376.035156c-6.808593-1.890625-15.871093-5.210937-27.707031-10.148437-19.296875-8.050781-45.554687-20.277344-78.042969-36.339844-55.167968-27.277344-110.066406-56.628906-110.613281-56.921875-1.910156-1.023438-3.324219-2.777344-3.917969-4.859375-.597656-2.082031-.320312-4.320313.761719-6.195313l19.632813-34c-1.9375.589844-3.589844 1.882813-4.609375 3.644532l-24 41.570312c-1.082031 1.875-1.359375 4.109375-.761719 6.195313.59375 2.082031 2.007812 3.835937 3.917969 4.859375.546875.292968 55.441406 29.640625 110.613281 56.917968 32.488281 16.0625 58.746094 28.292969 78.042969 36.34375 11.835937 4.9375 20.898437 8.257813 27.707031 10.148438 6.726562 1.871094 16.8125 4.195312 21.109375-3.25 1.210937-2.09375 1.5-4.207031 1.214844-6.253906-4.386719.617187-9.433594-.621094-13.347657-1.710938zm0 0" fill="#7ec91e"/><path d="m240.03125 224c-17.644531 0-32 14.355469-32 32s14.355469 32 32 32c17.648438 0 32-14.355469 32-32s-14.351562-32-32-32zm0 0" fill="#fac54f"/><g fill="#80caf4"><path d="m468.878906 302.304688c-.4375 0-.878906-.035157-1.324218-.109376-4.355469-.722656-7.304688-4.84375-6.578126-9.203124 2.027344-12.210938 3.058594-24.65625 3.058594-36.992188 0-94.710938-59.960937-179.582031-149.203125-211.191406-4.167969-1.476563-6.347656-6.046875-4.871093-10.210938 1.476562-4.167968 6.046874-6.347656 10.210937-4.871094 95.617187 33.867188 159.863281 124.796876 159.863281 226.273438 0 13.210938-1.101562 26.539062-3.273437 39.613281-.652344 3.917969-4.042969 6.691407-7.882813 6.691407zm0 0"/><path d="m421.53125 294.378906c-.433594 0-.875-.035156-1.320312-.109375-4.355469-.722656-7.304688-4.84375-6.578126-9.203125 1.59375-9.59375 2.398438-19.375 2.398438-29.066406 0-74.417969-47.109375-141.101562-117.230469-165.9375-4.164062-1.476562-6.34375-6.046875-4.867187-10.210938 1.472656-4.167968 6.046875-6.347656 10.210937-4.871093 76.496094 27.09375 127.886719 99.839843 127.886719 181.019531 0 10.566406-.878906 21.230469-2.617188 31.6875-.648437 3.917969-4.039062 6.691406-7.882812 6.691406zm0 0"/><path d="m374.1875 286.457031c-.4375 0-.878906-.035156-1.320312-.109375-4.359376-.726562-7.304688-4.84375-6.582032-9.203125 1.160156-6.980469 1.746094-14.09375 1.746094-21.144531 0-54.121094-34.261719-102.621094-85.257812-120.683594-4.164063-1.472656-6.34375-6.046875-4.871094-10.210937 1.476562-4.164063 6.050781-6.34375 10.214844-4.871094 57.371093 20.320313 95.914062 74.878906 95.914062 135.765625 0 7.925781-.660156 15.921875-1.960938 23.765625-.652343 3.914063-4.042968 6.691406-7.882812 6.691406zm0 0"/><path d="m11.863281 306.277344c-3.78125 0-7.144531-2.691406-7.859375-6.542969-18.480468-99.742187 28.148438-200.84375 116.03125-251.582031 11.441406-6.605469 23.535156-12.316406 35.945313-16.96875 4.136719-1.554688 8.746093.542968 10.296875 4.679687 1.554687 4.136719-.542969 8.746094-4.679688 10.296875-11.585937 4.347656-22.878906 9.679688-33.5625 15.851563-82.023437 47.355469-125.546875 141.71875-108.296875 234.808593.804688 4.34375-2.0625 8.519532-6.410156 9.324219-.492187.089844-.980469.132813-1.464844.132813zm0 0"/><path d="m59.066406 297.53125c-3.78125 0-7.140625-2.691406-7.855468-6.542969-14.785157-79.792969 22.519531-160.675781 92.824218-201.265625 9.152344-5.285156 18.828125-9.855468 28.753906-13.578125 4.132813-1.550781 8.746094.542969 10.300782 4.679688 1.550781 4.140625-.542969 8.75-4.683594 10.300781-9.101562 3.417969-17.976562 7.605469-26.371094 12.453125-64.449218 37.207031-98.644531 111.351563-85.089844 184.492187.804688 4.34375-2.066406 8.519532-6.410156 9.324219-.492187.09375-.984375.136719-1.46875.136719zm0 0"/><path d="m106.273438 288.785156c-3.78125 0-7.140626-2.691406-7.855469-6.542968-11.089844-59.847657 16.886719-120.507813 69.617187-150.949219 6.859375-3.960938 14.117188-7.386719 21.5625-10.183594 4.140625-1.550781 8.75.542969 10.300782 4.679687 1.550781 4.140626-.542969 8.75-4.679688 10.304688-6.625 2.484375-13.082031 5.53125-19.183594 9.054688-46.871094 27.0625-71.742187 80.984374-61.886718 134.179687.804687 4.34375-2.0625 8.519531-6.410157 9.324219-.492187.089844-.980469.132812-1.464843.132812zm0 0"/></g></svg>